# xmcd
#
# Track frame offsets: 
#        150
#        14911
#        30521
#        45413
#        52067
#
# Disc length: 1092 seconds
#
# Revision: 0
# Processed by: cddbd v1.5.2PL0 Copyright (c) Steve Scherf et al.
# Submitted via: ExactAudioCopy v0.95b4
#
DISCID=3c044205
DTITLE=Ramriders - Secrets of Mine EP
DYEAR=2007
DGENRE=
TTITLE0=Deep in Your Eyes
TTITLE1=Secrets of Mine
TTITLE2=Gloria
TTITLE3=Diary Song
TTITLE4=Terrible Haircut
EXTD=
EXTT0=
EXTT1=
EXTT2=
EXTT3=
EXTT4=
PLAYORDER=
